<svg xmlns="http://www.w3.org/2000/svg" viewBox="0 0 800 520" role="img" aria-label="Schedule dashboard preview">
  <rect width="800" height="520" rx="16" fill="#f8fafc"/>
  <rect x="0" y="0" width="800" height="48" rx="16" fill="#0f172a"/>
  <circle cx="28" cy="24" r="6" fill="#f87171"/>
  <circle cx="48" cy="24" r="6" fill="#fbbf24"/>
  <circle cx="68" cy="24" r="6" fill="#4ade80"/>
  <rect x="24" y="72" width="180" height="424" rx="12" fill="#e2e8f0"/>
  <rect x="44" y="96" width="120" height="10" rx="5" fill="#94a3b8"/>
  <rect x="44" y="124" width="100" height="8" rx="4" fill="#cbd5e1"/>
  <rect x="44" y="148" width="110" height="8" rx="4" fill="#cbd5e1"/>
  <rect x="220" y="72" width="556" height="200" rx="12" fill="#ffffff" stroke="#e2e8f0"/>
  <rect x="244" y="96" width="200" height="14" rx="7" fill="#0f172a" opacity="0.85"/>
  <rect x="244" y="128" width="320" height="10" rx="5" fill="#cbd5e1"/>
  <rect x="244" y="168" width="140" height="36" rx="8" fill="#2563eb"/>
  <rect x="220" y="292" width="268" height="204" rx="12" fill="#ffffff" stroke="#e2e8f0"/>
  <rect x="504" y="292" width="272" height="204" rx="12" fill="#ffffff" stroke="#e2e8f0"/>
  <rect x="244" y="316" width="120" height="10" rx="5" fill="#64748b"/>
  <rect x="528" y="316" width="120" height="10" rx="5" fill="#64748b"/>
</svg>