<svg xmlns="http://www.w3.org/2000/svg" viewBox="0 0 800 520" role="img" aria-label="Route planner preview">
  <rect width="800" height="520" rx="16" fill="#f8fafc"/>
  <rect x="0" y="0" width="800" height="48" rx="16" fill="#0f172a"/>
  <circle cx="28" cy="24" r="6" fill="#f87171"/>
  <circle cx="48" cy="24" r="6" fill="#fbbf24"/>
  <circle cx="68" cy="24" r="6" fill="#4ade80"/>
  <rect x="48" y="88" width="704" height="384" rx="12" fill="#dbeafe"/>
  <path d="M120 360 C220 280 340 320 420 240 C500 160 580 200 680 140" fill="none" stroke="#2563eb" stroke-width="8" stroke-linecap="round"/>
  <circle cx="120" cy="360" r="14" fill="#f59e0b"/>
  <circle cx="420" cy="240" r="14" fill="#2563eb"/>
  <circle cx="680" cy="140" r="14" fill="#059669"/>
  <rect x="80" y="108" width="180" height="72" rx="10" fill="#ffffff" opacity="0.92"/>
  <rect x="96" y="128" width="100" height="10" rx="5" fill="#334155"/>
  <rect x="96" y="148" width="140" height="8" rx="4" fill="#94a3b8"/>
</svg>