<svg xmlns="http://www.w3.org/2000/svg" viewBox="0 0 800 520" role="img" aria-label="Invoices and payments preview">
  <rect width="800" height="520" rx="16" fill="#f8fafc"/>
  <rect x="0" y="0" width="800" height="48" rx="16" fill="#0f172a"/>
  <circle cx="28" cy="24" r="6" fill="#f87171"/>
  <circle cx="48" cy="24" r="6" fill="#fbbf24"/>
  <circle cx="68" cy="24" r="6" fill="#4ade80"/>
  <rect x="48" y="88" width="704" height="384" rx="12" fill="#ffffff" stroke="#e2e8f0"/>
  <rect x="80" y="120" width="220" height="16" rx="8" fill="#0f172a" opacity="0.9"/>
  <rect x="80" y="156" width="160" height="10" rx="5" fill="#94a3b8"/>
  <rect x="80" y="220" width="640" height="1" fill="#e2e8f0"/>
  <rect x="80" y="248" width="420" height="10" rx="5" fill="#cbd5e1"/>
  <rect x="80" y="276" width="380" height="10" rx="5" fill="#cbd5e1"/>
  <rect x="80" y="304" width="400" height="10" rx="5" fill="#cbd5e1"/>
  <rect x="560" y="360" width="160" height="44" rx="10" fill="#059669"/>
  <rect x="80" y="360" width="120" height="44" rx="10" fill="#e2e8f0"/>
</svg>